<svg width="25" height="24" viewBox="0 0 25 24" fill="none" xmlns="http://www.w3.org/2000/svg">
<path fill-rule="evenodd" clip-rule="evenodd" d="M17.0359 2.76862L17.0369 3.51824C19.7915 3.73413 21.6112 5.61119 21.6141 8.48975L21.625 16.9155C21.6289 20.054 19.6572 21.985 16.4968 21.99L8.77688 22C5.63619 22.004 3.63982 20.027 3.63587 16.8795L3.62501 8.55272C3.62106 5.65517 5.37653 3.78311 8.13117 3.53024L8.13018 2.78061C8.1292 2.34083 8.45501 2.01 8.88944 2.01C9.32386 2.009 9.64968 2.33883 9.65067 2.77861L9.65166 3.47826L15.5164 3.47027L15.5154 2.77062C15.5144 2.33084 15.8402 2.001 16.2747 2C16.6992 1.999 17.0349 2.32884 17.0359 2.76862ZM5.14648 8.86157L20.0946 8.84158V8.49175C20.0522 6.34283 18.974 5.21539 17.0388 5.04748L17.0398 5.81709C17.0398 6.24688 16.7051 6.5877 16.2806 6.5877C15.8462 6.5887 15.5193 6.24887 15.5193 5.81909L15.5184 5.0095L9.65363 5.01749L9.65462 5.82609C9.65462 6.25687 9.32979 6.5967 8.89536 6.5967C8.46094 6.5977 8.13413 6.25887 8.13413 5.82809L8.13315 5.05847C6.20786 5.25137 5.14253 6.38281 5.14549 8.55072L5.14648 8.86157ZM15.8649 13.4043V13.4153C15.8748 13.8751 16.25 14.2239 16.7051 14.2139C17.1494 14.2029 17.5039 13.8221 17.494 13.3623C17.4733 12.9225 17.1168 12.5637 16.6735 12.5647C16.2194 12.5747 15.8639 12.9445 15.8649 13.4043ZM16.6804 17.892C16.2263 17.882 15.86 17.5032 15.859 17.0435C15.8491 16.5837 16.2134 16.2029 16.6676 16.1919H16.6775C17.1415 16.1919 17.5177 16.5707 17.5177 17.0405C17.5187 17.5102 17.1435 17.891 16.6804 17.892ZM11.7971 13.4203C11.8169 13.8801 12.193 14.2389 12.6472 14.2189C13.0915 14.1979 13.446 13.8181 13.4262 13.3583C13.4153 12.9085 13.05 12.5587 12.6057 12.5597C12.1516 12.5797 11.7961 12.9605 11.7971 13.4203ZM12.6512 17.8471C12.197 17.8671 11.8218 17.5082 11.8011 17.0485C11.8011 16.5887 12.1555 16.2089 12.6097 16.1879C13.054 16.1869 13.4203 16.5367 13.4302 16.9855C13.4509 17.4463 13.0955 17.8261 12.6512 17.8471ZM7.72933 13.4553C7.74908 13.915 8.12525 14.2749 8.57942 14.2539C9.02372 14.2339 9.37817 13.8531 9.35743 13.3933C9.34756 12.9435 8.98225 12.5937 8.53696 12.5947C8.08279 12.6147 7.72834 12.9955 7.72933 13.4553ZM8.58337 17.8521C8.1292 17.8731 7.75401 17.5132 7.73328 17.0535C7.73229 16.5937 8.08773 16.2129 8.5419 16.1929C8.9862 16.1919 9.3525 16.5417 9.36237 16.9915C9.3831 17.4513 9.02865 17.8321 8.58337 17.8521Z" fill="#2CA8FF"/>
</svg>
