<svg width="25" height="24" viewBox="0 0 25 24" fill="none" xmlns="http://www.w3.org/2000/svg">
<path fill-rule="evenodd" clip-rule="evenodd" d="M16.0908 16.9736H8.87085C8.45685 16.9736 8.12085 16.6376 8.12085 16.2236C8.12085 15.8096 8.45685 15.4736 8.87085 15.4736H16.0908C16.5048 15.4736 16.8408 15.8096 16.8408 16.2236C16.8408 16.6376 16.5048 16.9736 16.0908 16.9736Z" fill="#BAC0CA"/>
<path fill-rule="evenodd" clip-rule="evenodd" d="M16.0908 12.7871H8.87085C8.45685 12.7871 8.12085 12.4511 8.12085 12.0371C8.12085 11.6231 8.45685 11.2871 8.87085 11.2871H16.0908C16.5048 11.2871 16.8408 11.6231 16.8408 12.0371C16.8408 12.4511 16.5048 12.7871 16.0908 12.7871Z" fill="#BAC0CA"/>
<path fill-rule="evenodd" clip-rule="evenodd" d="M11.6256 8.61035H8.87061C8.45661 8.61035 8.12061 8.27435 8.12061 7.86035C8.12061 7.44635 8.45661 7.11035 8.87061 7.11035H11.6256C12.0396 7.11035 12.3756 7.44635 12.3756 7.86035C12.3756 8.27435 12.0396 8.61035 11.6256 8.61035Z" fill="#BAC0CA"/>
<mask id="mask0_222_9365" style="mask-type:alpha" maskUnits="userSpaceOnUse" x="3" y="2" width="24" height="25">
<path fill-rule="evenodd" clip-rule="evenodd" d="M3.375 2H21.5397V21.9098H3.375V2Z" fill="white"/>
</mask>
<g mask="url(#mask0_222_9365)">
<path fill-rule="evenodd" clip-rule="evenodd" d="M16.2838 3.5L8.59476 3.504C6.26676 3.518 4.87476 4.958 4.87476 7.357V16.553C4.87476 18.968 6.27976 20.41 8.63076 20.41L16.3198 20.407C18.6478 20.393 20.0398 18.951 20.0398 16.553V7.357C20.0398 4.942 18.6358 3.5 16.2838 3.5ZM8.63176 21.91C5.48776 21.91 3.37476 19.757 3.37476 16.553V7.357C3.37476 4.124 5.42176 2.023 8.58976 2.004L16.2828 2H16.2838C19.4278 2 21.5398 4.153 21.5398 7.357V16.553C21.5398 19.785 19.4928 21.887 16.3248 21.907L8.63176 21.91Z" fill="#BAC0CA"/>
</g>
</svg>
