<svg width="25" height="24" viewBox="0 0 25 24" fill="none" xmlns="http://www.w3.org/2000/svg">
<mask id="mask0_224_9135" style="mask-type:alpha" maskUnits="userSpaceOnUse" x="2" y="1" width="25" height="24">
<path fill-rule="evenodd" clip-rule="evenodd" d="M2.875 1H23.3748V22.505H2.875V1Z" fill="white"/>
</mask>
<g mask="url(#mask0_224_9135)">
<path fill-rule="evenodd" clip-rule="evenodd" d="M14.5918 15.2913C15.7958 15.2913 16.7758 16.2643 16.7758 17.4603V20.5362C16.7758 20.7932 16.9818 20.9992 17.2458 21.0052H19.1518C20.6538 21.0052 21.8748 19.7993 21.8748 18.3173V9.59325C21.8678 9.08325 21.6248 8.60325 21.2078 8.28425L14.6148 3.02625C13.7298 2.32525 12.4918 2.32525 11.6038 3.02825L5.05576 8.28225C4.62276 8.61125 4.37976 9.09125 4.37476 9.61025V18.3173C4.37476 19.7993 5.59576 21.0052 7.09776 21.0052H9.02176C9.29276 21.0052 9.51276 20.7902 9.51276 20.5262C9.51276 20.4682 9.51976 20.4102 9.53176 20.3552V17.4603C9.53176 16.2713 10.5058 15.2993 11.7008 15.2913H14.5918ZM19.1518 22.5053H17.2278C16.1258 22.4793 15.2758 21.6143 15.2758 20.5363V17.4603C15.2758 17.0913 14.9688 16.7913 14.5918 16.7913H11.7058C11.3368 16.7933 11.0318 17.0943 11.0318 17.4603V20.5263C11.0318 20.6013 11.0218 20.6733 11.0008 20.7413C10.8928 21.7313 10.0468 22.5053 9.02176 22.5053H7.09776C4.76876 22.5053 2.87476 20.6262 2.87476 18.3172V9.60325C2.88476 8.60925 3.34276 7.69925 4.13376 7.10025L10.6688 1.85525C12.1078 0.71525 14.1128 0.71525 15.5488 1.85325L22.1308 7.10325C22.9038 7.69225 23.3618 8.60025 23.3748 9.58225V18.3172C23.3748 20.6262 21.4808 22.5053 19.1518 22.5053Z" fill="#BAC0CA"/>
</g>
</svg>
