<svg viewBox="0 0 1024 1024" fill="none" xmlns="http://www.w3.org/2000/svg">
  <rect width="1024" height="1024" fill="white" />
  <g clip-path="url(#clip0_1105_4)">
    <path d="M903 358.131C903 310.968 888.807 264.904 862.277 225.972C835.747 187.041 798.113 157.057 754.311 139.948C710.509 122.839 662.577 119.403 616.796 130.09C571.012 140.776 529.515 165.088 497.737 199.839H203V824H825.301V532.299C849.725 510.379 869.271 483.539 882.66 453.527C896.047 423.516 902.98 391.012 903 358.131ZM783.263 358.131C783.31 380.73 776.674 402.836 764.195 421.651C751.713 440.463 733.954 455.141 713.157 463.821C692.36 472.503 669.466 474.799 647.367 470.418C625.272 466.039 604.966 455.179 589.023 439.215C573.079 423.251 562.215 402.9 557.803 380.737C553.392 358.576 555.633 335.598 564.241 314.715C572.849 293.83 587.44 275.978 606.163 263.417C624.889 250.857 646.907 244.152 669.431 244.151C699.579 244.151 728.498 256.153 749.838 277.521C771.181 298.889 783.202 327.88 783.263 358.131ZM705.564 703.86H322.737V319.98H439.403C437.15 332.574 435.965 345.337 435.861 358.131C435.925 420.267 460.552 479.84 504.342 523.777C548.13 567.713 607.503 592.425 669.431 592.487C681.539 592.423 693.621 591.393 705.564 589.407V703.86Z" fill="#2CA8FF" />
  </g>
  <defs>
    <clipPath id="clip0_1105_4">
      <rect width="700" height="700" fill="white" transform="translate(203 124)" />
    </clipPath>
  </defs>
</svg>