<svg width="61" height="60" viewBox="0 0 61 60" fill="none" xmlns="http://www.w3.org/2000/svg">
<mask id="mask0_224_10531" style="mask-type:alpha" maskUnits="userSpaceOnUse" x="8" y="5" width="61" height="60">
<path fill-rule="evenodd" clip-rule="evenodd" d="M8.00073 5.0293H50.6325V54.663H8.00073V5.0293Z" fill="white"/>
</mask>
<g mask="url(#mask0_224_10531)">
<path fill-rule="evenodd" clip-rule="evenodd" d="M19.4335 8.7793C15.291 8.7793 11.851 12.1343 11.7535 16.2718V43.0093C11.661 47.2918 15.036 50.8193 19.276 50.9143H39.436C43.6085 50.7418 46.9135 47.2743 46.8835 43.0243V20.8493L35.296 8.7793H19.4635H19.4335ZM19.4635 54.6643H19.191C12.886 54.5218 7.86599 49.2768 8.00349 42.9693V16.2268C8.14849 10.0243 13.271 5.0293 19.4285 5.0293H19.471H36.096C36.606 5.0293 37.0935 5.2368 37.4485 5.6043L50.111 18.7968C50.446 19.1443 50.6335 19.6118 50.6335 20.0943V43.0093C50.6785 49.2818 45.7935 54.4068 39.511 54.6618L19.4635 54.6643Z" fill="black"/>
</g>
<path fill-rule="evenodd" clip-rule="evenodd" d="M48.7462 22.461H41.8588C37.2838 22.4485 33.5638 18.7185 33.5638 14.1485V6.87598C33.5638 5.84098 34.4038 5.00098 35.4388 5.00098C36.4738 5.00098 37.3138 5.84098 37.3138 6.87598V14.1485C37.3138 16.6585 39.3563 18.7035 41.8638 18.711H48.7462C49.7812 18.711 50.6213 19.551 50.6213 20.586C50.6213 21.621 49.7812 22.461 48.7462 22.461Z" fill="black"/>
<path fill-rule="evenodd" clip-rule="evenodd" d="M34.9717 40.271H21.4717C20.4367 40.271 19.5967 39.431 19.5967 38.396C19.5967 37.361 20.4367 36.521 21.4717 36.521H34.9717C36.0067 36.521 36.8467 37.361 36.8467 38.396C36.8467 39.431 36.0067 40.271 34.9717 40.271Z" fill="black"/>
<path fill-rule="evenodd" clip-rule="evenodd" d="M29.8595 30.8911H21.4695C20.4345 30.8911 19.5945 30.0511 19.5945 29.0161C19.5945 27.9811 20.4345 27.1411 21.4695 27.1411H29.8595C30.8945 27.1411 31.7345 27.9811 31.7345 29.0161C31.7345 30.0511 30.8945 30.8911 29.8595 30.8911Z" fill="black"/>
</svg>
