<svg width="25" height="24" viewBox="0 0 25 24" fill="none" xmlns="http://www.w3.org/2000/svg">
<path fill-rule="evenodd" clip-rule="evenodd" d="M14.6023 4.44209L21.871 17.0572C22.031 17.4338 22.101 17.7399 22.121 18.058C22.161 18.8012 21.901 19.5236 21.3911 20.0795C20.8812 20.6334 20.1913 20.9604 19.4414 21H4.8039C4.49396 20.9812 4.18401 20.9108 3.89406 20.8018C2.4443 20.2172 1.74442 18.5723 2.33432 17.1464L9.65309 4.43317C9.90304 3.98628 10.283 3.60082 10.7529 3.35309C12.1127 2.59902 13.8424 3.09447 14.6023 4.44209ZM12.9925 12.7557C12.9925 13.2314 12.6026 13.6287 12.1227 13.6287C11.6428 13.6287 11.2428 13.2314 11.2428 12.7557V9.95248C11.2428 9.47585 11.6428 9.09039 12.1227 9.09039C12.6026 9.09039 12.9925 9.47585 12.9925 9.95248V12.7557ZM12.1227 17.0176C11.6428 17.0176 11.2428 16.6202 11.2428 16.1456C11.2428 15.669 11.6428 15.2726 12.1227 15.2726C12.6026 15.2726 12.9925 15.6601 12.9925 16.1347C12.9925 16.6202 12.6026 17.0176 12.1227 17.0176Z" fill="#2CA8FF"/>
</svg>
