<svg width="25" height="24" viewBox="0 0 25 24" fill="none" xmlns="http://www.w3.org/2000/svg">
<mask id="mask0_224_8760" style="mask-type:alpha" maskUnits="userSpaceOnUse" x="2" y="3" width="25" height="24">
<path fill-rule="evenodd" clip-rule="evenodd" d="M2.125 3H22.1387V21.1855H2.125V3Z" fill="white"/>
</mask>
<g mask="url(#mask0_224_8760)">
<path fill-rule="evenodd" clip-rule="evenodd" d="M12.1378 4.5C11.6618 4.5 11.2378 4.746 10.9998 5.159L3.80177 17.724C3.56777 18.134 3.56977 18.623 3.80677 19.032C4.04377 19.441 4.46777 19.686 4.94077 19.686H19.3238C19.7958 19.686 20.2198 19.441 20.4568 19.032C20.6948 18.623 20.6968 18.134 20.4608 17.724L13.2758 5.159C13.0388 4.746 12.6148 4.5 12.1378 4.5ZM19.3238 21.186H4.94077C3.92677 21.186 3.01777 20.662 2.50877 19.784C1.99977 18.907 1.99677 17.858 2.49977 16.979L9.69977 4.413C10.2058 3.528 11.1168 3 12.1378 3H12.1388C13.1588 3 14.0718 3.529 14.5778 4.415L21.7638 16.979C22.2668 17.858 22.2638 18.907 21.7548 19.784C21.2458 20.662 20.3368 21.186 19.3238 21.186Z" fill="#BAC0CA"/>
</g>
<path fill-rule="evenodd" clip-rule="evenodd" d="M12.1289 14.164C11.7149 14.164 11.3789 13.828 11.3789 13.414V10.314C11.3789 9.89996 11.7149 9.56396 12.1289 9.56396C12.5429 9.56396 12.8789 9.89996 12.8789 10.314V13.414C12.8789 13.828 12.5429 14.164 12.1289 14.164Z" fill="#BAC0CA"/>
<path fill-rule="evenodd" clip-rule="evenodd" d="M12.131 17.499C11.578 17.499 11.126 17.052 11.126 16.499C11.126 15.946 11.569 15.499 12.121 15.499H12.131C12.684 15.499 13.131 15.946 13.131 16.499C13.131 17.052 12.684 17.499 12.131 17.499Z" fill="#BAC0CA"/>
</svg>
